HIERARCHY
ROOT root
{
	OFFSET	0	13.1	24.9
	CHANNELS 6  Xposition Yposition Zposition Xrotation Yrotation Zrotation
	JOINT spine_1
	{
		OFFSET	0	9.99999	0
		CHANNELS 3  Xrotation Yrotation Zrotation
		JOINT spine_2
		{
			OFFSET	0	112	-10
			CHANNELS 3  Xrotation Yrotation Zrotation
			JOINT spine_3
			{
				OFFSET	0	206.5	19.3
				CHANNELS 3  Xrotation Yrotation Zrotation
				JOINT spine_4
				{
					OFFSET	0	110.4	14.6
					CHANNELS 3  Xrotation Yrotation Zrotation
					JOINT neck_1
					{
						OFFSET	0	71.8	-50.3
						CHANNELS 3  Xrotation Yrotation Zrotation
						JOINT neck_2
						{
							OFFSET	0	86.2	-25.8
							CHANNELS 3  Xrotation Yrotation Zrotation
							JOINT head_ee
							{
								OFFSET	0	179.8	-8.7
								CHANNELS 3  Xrotation Yrotation Zrotation
								End Site
								{
									OFFSET	1	0	0
								}
							}
						}
					}
					JOINT left_clavicle
					{
						OFFSET	-43.2	22.4	-70.8
						CHANNELS 3  Xrotation Yrotation Zrotation
						JOINT left_shoulder
						{
							OFFSET	-93.9	-5.79999	48.7
							CHANNELS 3  Xrotation Yrotation Zrotation
							JOINT left_elbow
							{
								OFFSET	-291.4	-30.8	15.2
								CHANNELS 3  Xrotation Yrotation Zrotation
								JOINT left_lowarm_twist
								{
									OFFSET	-110.7	-3.89999	13.6
									CHANNELS 3  Xrotation Yrotation Zrotation
									JOINT left_hand
									{
										OFFSET	-110.7	-3.89999	13.6
										CHANNELS 3  Xrotation Yrotation Zrotation
										JOINT left_ee
										{
											OFFSET	-80.8	-5.10001	12.1
											CHANNELS 3  Xrotation Yrotation Zrotation
											End Site
											{
												OFFSET	1	0	0
											}
										}
									}
								}
							}
						}
					}
					JOINT right_clavicle
					{
						OFFSET	43.2	22.4	-70.8
						CHANNELS 3  Xrotation Yrotation Zrotation
						JOINT right_shoulder
						{
							OFFSET	93.9	-5.79999	48.7
							CHANNELS 3  Xrotation Yrotation Zrotation
							JOINT right_elbow
							{
								OFFSET	291.4	-30.8	15.2
								CHANNELS 3  Xrotation Yrotation Zrotation
								JOINT right_lowarm_twist
								{
									OFFSET	110.7	-3.89999	13.6
									CHANNELS 3  Xrotation Yrotation Zrotation
									JOINT right_hand
									{
										OFFSET	110.7	-3.89999	13.6
										CHANNELS 3  Xrotation Yrotation Zrotation
										JOINT right_ee
										{
											OFFSET	80.8	-5.10001	12.1
											CHANNELS 3  Xrotation Yrotation Zrotation
											End Site
											{
												OFFSET	1	0	0
											}
										}
									}
								}
							}
						}
					}
				}
			}
		}
	}
	JOINT left_hip
	{
		OFFSET	-82.8	-127.5	0.300001
		CHANNELS 3  Xrotation Yrotation Zrotation
		JOINT left_knee
		{
			OFFSET	-28.2	-396.7	2.2
			CHANNELS 3  Xrotation Yrotation Zrotation
			JOINT left_ankle
			{
				OFFSET	-11.7	-411.3	35.4
				CHANNELS 3  Xrotation Yrotation Zrotation
				JOINT left_toes
				{
					OFFSET	0	-60	-88.6
					CHANNELS 3  Xrotation Yrotation Zrotation
					JOINT left_foot_ee
					{
						OFFSET	-22.5	-16.5	-42.2
						CHANNELS 3  Xrotation Yrotation Zrotation
						End Site
						{
							OFFSET	1	0	0
						}
					}
				}
			}
		}
	}
	JOINT right_hip
	{
		OFFSET	82.8	-127.5	0.300001
		CHANNELS 3  Xrotation Yrotation Zrotation
		JOINT right_knee
		{
			OFFSET	28.2	-396.7	2.2
			CHANNELS 3  Xrotation Yrotation Zrotation
			JOINT right_ankle
			{
				OFFSET	11.7	-411.3	35.4
				CHANNELS 3  Xrotation Yrotation Zrotation
				JOINT right_toes
				{
					OFFSET	0	-60	-88.6
					CHANNELS 3  Xrotation Yrotation Zrotation
					JOINT right_foot_ee
					{
						OFFSET	22.5	-16.5	-42.2
						CHANNELS 3  Xrotation Yrotation Zrotation
						End Site
						{
							OFFSET	1	0	0
						}
					}
				}
			}
		}
	}
}
MOTION
Frames: 14
Frame Time: 0.02
3574.42 741.953 -1474.73 175.304000688 71.1643470276 175.301775061 -0.909902 1.2299 5.54889 -0.893207 0.874892 5.61562 -0.793215 -0.403292 5.66887 -0.837688 0.495588 5.66157 -7.4225 13.8845 -6.58628 -7.28562 30.5207 -3.65083 -0.0 0.0 -0.0 -2.46748 23.6573 -0.628193 -17.9904 -12.3315 51.6632 2.51452 -51.2338 1.20582 -59.5782 -5.23034 5.08785 0.532335 -8.40731 0.0247886 -0.0 0.0 -0.0 13.0184 22.8389 -26.0539 -12.4595 30.0202 -63.6472 0.806436 21.7758 -0.155121 35.3182 0.128402 4.43922 0.367581 -17.1234 -9.23459 0.0 0.0 0.0 -6.94999 4.42522 4.93593 -12.5502 0.310007 1.89723 10.9853 19.608 -1.58952 15.4405 -0.0 -0.0 -0.0 0.0 -0.0 -2.41032 9.42735 5.88312 -15.0795 -0.321786 -2.28508 29.8131 -0.692292 3.88561 -6.2198 0.0 0.0 0.0 0.0 0.0 
3574.42 741.953 -1474.73 175.0421172 72.1912772082 175.577632925 -0.909902 1.2299 5.54889 -0.893207 0.874892 5.61562 -0.793215 -0.403292 5.66887 -0.837688 0.495588 5.66157 -7.4225 13.8845 -6.58628 -7.28562 30.5207 -3.65083 -0.0 0.0 -0.0 -2.46748 23.6573 -0.628193 -17.9904 -12.3315 51.6632 2.51452 -51.2338 1.20582 -59.5782 -5.23034 5.08785 0.532335 -8.40731 0.0247886 -0.0 0.0 -0.0 13.0184 22.8389 -26.0539 -12.4595 30.0202 -63.6472 0.806436 21.7758 -0.155121 35.3182 0.128402 4.43922 0.367581 -17.1234 -9.23459 0.0 0.0 0.0 -6.94999 4.42522 4.93593 -12.5502 0.310007 1.89723 10.9853 19.608 -1.58952 15.4405 -0.0 -0.0 -0.0 0.0 -0.0 -2.41032 9.42735 5.88312 -15.0795 -0.321786 -2.28508 29.8131 -0.692292 3.88561 -6.2198 0.0 0.0 0.0 0.0 0.0 
3574.42 741.953 -1474.73 174.630914147 73.5918599766 176.007841962 -0.909902 1.2299 5.54889 -0.893207 0.874892 5.61562 -0.793215 -0.403292 5.66887 -0.837688 0.495588 5.66157 -7.4225 13.8845 -6.58628 -7.28562 30.5207 -3.65083 -0.0 0.0 -0.0 -2.46748 23.6573 -0.628193 -17.9904 -12.3315 51.6632 2.51452 -51.2338 1.20582 -59.5782 -5.23034 5.08785 0.532335 -8.40731 0.0247886 -0.0 0.0 -0.0 13.0184 22.8389 -26.0539 -12.4595 30.0202 -63.6472 0.806436 21.7758 -0.155121 35.3182 0.128402 4.43922 0.367581 -17.1234 -9.23459 0.0 0.0 0.0 -6.94999 4.42522 4.93593 -12.5502 0.310007 1.89723 10.9853 19.608 -1.58952 15.4405 -0.0 -0.0 -0.0 0.0 -0.0 -2.41032 9.42735 5.88312 -15.0795 -0.321786 -2.28508 29.8131 -0.692292 3.88561 -6.2198 0.0 0.0 0.0 0.0 0.0 
3574.42 741.953 -1474.73 174.099118446 75.102020002 176.560071663 -0.909902 1.2299 5.54889 -0.893207 0.874892 5.61562 -0.793215 -0.403292 5.66887 -0.837688 0.495588 5.66157 -7.4225 13.8845 -6.58628 -7.28562 30.5207 -3.65083 -0.0 0.0 -0.0 -2.46748 23.6573 -0.628193 -17.9904 -12.3315 51.6632 2.51452 -51.2338 1.20582 -59.5782 -5.23034 5.08785 0.532335 -8.40731 0.0247886 -0.0 0.0 -0.0 13.0184 22.8389 -26.0539 -12.4595 30.0202 -63.6472 0.806436 21.7758 -0.155121 35.3182 0.128402 4.43922 0.367581 -17.1234 -9.23459 0.0 0.0 0.0 -6.94999 4.42522 4.93593 -12.5502 0.310007 1.89723 10.9853 19.608 -1.58952 15.4405 -0.0 -0.0 -0.0 0.0 -0.0 -2.41032 9.42735 5.88312 -15.0795 -0.321786 -2.28508 29.8131 -0.692292 3.88561 -6.2198 0.0 0.0 0.0 0.0 0.0 
3574.42 741.953 -1474.73 173.414902473 76.6743584006 177.265511641 -0.909902 1.2299 5.54889 -0.893207 0.874892 5.61562 -0.793215 -0.403292 5.66887 -0.837688 0.495588 5.66157 -7.4225 13.8845 -6.58628 -7.28562 30.5207 -3.65083 -0.0 0.0 -0.0 -2.46748 23.6573 -0.628193 -17.9904 -12.3315 51.6632 2.51452 -51.2338 1.20582 -59.5782 -5.23034 5.08785 0.532335 -8.40731 0.0247886 -0.0 0.0 -0.0 13.0184 22.8389 -26.0539 -12.4595 30.0202 -63.6472 0.806436 21.7758 -0.155121 35.3182 0.128402 4.43922 0.367581 -17.1234 -9.23459 0.0 0.0 0.0 -6.94999 4.42522 4.93593 -12.5502 0.310007 1.89723 10.9853 19.608 -1.58952 15.4405 -0.0 -0.0 -0.0 0.0 -0.0 -2.41032 9.42735 5.88312 -15.0795 -0.321786 -2.28508 29.8131 -0.692292 3.88561 -6.2198 0.0 0.0 0.0 0.0 0.0 
3574.42 741.953 -1474.73 172.309085589 78.6089650808 178.397397168 -0.909902 1.2299 5.54889 -0.893207 0.874892 5.61562 -0.793215 -0.403292 5.66887 -0.837688 0.495588 5.66157 -7.4225 13.8845 -6.58628 -7.28562 30.5207 -3.65083 -0.0 0.0 -0.0 -2.46748 23.6573 -0.628193 -17.9904 -12.3315 51.6632 2.51452 -51.2338 1.20582 -59.5782 -5.23034 5.08785 0.532335 -8.40731 0.0247886 -0.0 0.0 -0.0 13.0184 22.8389 -26.0539 -12.4595 30.0202 -63.6472 0.806436 21.7758 -0.155121 35.3182 0.128402 4.43922 0.367581 -17.1234 -9.23459 0.0 0.0 0.0 -6.94999 4.42522 4.93593 -12.5502 0.310007 1.89723 10.9853 19.608 -1.58952 15.4405 -0.0 -0.0 -0.0 0.0 -0.0 -2.41032 9.42735 5.88312 -15.0795 -0.321786 -2.28508 29.8131 -0.692292 3.88561 -6.2198 0.0 0.0 0.0 0.0 0.0 
3574.42 741.953 -1474.73 170.723307065 80.5628069005 -179.990502018 -0.909902 1.2299 5.54889 -0.893207 0.874892 5.61562 -0.793215 -0.403292 5.66887 -0.837688 0.495588 5.66157 -7.4225 13.8845 -6.58628 -7.28562 30.5207 -3.65083 -0.0 0.0 -0.0 -2.46748 23.6573 -0.628193 -17.9904 -12.3315 51.6632 2.51452 -51.2338 1.20582 -59.5782 -5.23034 5.08785 0.532335 -8.40731 0.0247886 -0.0 0.0 -0.0 13.0184 22.8389 -26.0539 -12.4595 30.0202 -63.6472 0.806436 21.7758 -0.155121 35.3182 0.128402 4.43922 0.367581 -17.1234 -9.23459 0.0 0.0 0.0 -6.94999 4.42522 4.93593 -12.5502 0.310007 1.89723 10.9853 19.608 -1.58952 15.4405 -0.0 -0.0 -0.0 0.0 -0.0 -2.41032 9.42735 5.88312 -15.0795 -0.321786 -2.28508 29.8131 -0.692292 3.88561 -6.2198 0.0 0.0 0.0 0.0 0.0 
3574.42 741.953 -1474.73 167.649887048 82.9012742637 -176.885464535 -0.909902 1.2299 5.54889 -0.893207 0.874892 5.61562 -0.793215 -0.403292 5.66887 -0.837688 0.495588 5.66157 -7.4225 13.8845 -6.58628 -7.28562 30.5207 -3.65083 -0.0 0.0 -0.0 -2.46748 23.6573 -0.628193 -17.9904 -12.3315 51.6632 2.51452 -51.2338 1.20582 -59.5782 -5.23034 5.08785 0.532335 -8.40731 0.0247886 -0.0 0.0 -0.0 13.0184 22.8389 -26.0539 -12.4595 30.0202 -63.6472 0.806436 21.7758 -0.155121 35.3182 0.128402 4.43922 0.367581 -17.1234 -9.23459 0.0 0.0 0.0 -6.94999 4.42522 4.93593 -12.5502 0.310007 1.89723 10.9853 19.608 -1.58952 15.4405 -0.0 -0.0 -0.0 0.0 -0.0 -2.41032 9.42735 5.88312 -15.0795 -0.321786 -2.28508 29.8131 -0.692292 3.88561 -6.2198 0.0 0.0 0.0 0.0 0.0 
3574.42 741.953 -1474.73 161.795952638 85.1465062874 -171.000726302 -0.909902 1.2299 5.54889 -0.893207 0.874892 5.61562 -0.793215 -0.403292 5.66887 -0.837688 0.495588 5.66157 -7.4225 13.8845 -6.58628 -7.28562 30.5207 -3.65083 -0.0 0.0 -0.0 -2.46748 23.6573 -0.628193 -17.9904 -12.3315 51.6632 2.51452 -51.2338 1.20582 -59.5782 -5.23034 5.08785 0.532335 -8.40731 0.0247886 -0.0 0.0 -0.0 13.0184 22.8389 -26.0539 -12.4595 30.0202 -63.6472 0.806436 21.7758 -0.155121 35.3182 0.128402 4.43922 0.367581 -17.1234 -9.23459 0.0 0.0 0.0 -6.94999 4.42522 4.93593 -12.5502 0.310007 1.89723 10.9853 19.608 -1.58952 15.4405 -0.0 -0.0 -0.0 0.0 -0.0 -2.41032 9.42735 5.88312 -15.0795 -0.321786 -2.28508 29.8131 -0.692292 3.88561 -6.2198 0.0 0.0 0.0 0.0 0.0 
3574.42 741.953 -1474.73 126.423694871 88.117561404 -135.582255817 -0.909902 1.2299 5.54889 -0.893207 0.874892 5.61562 -0.793215 -0.403292 5.66887 -0.837688 0.495588 5.66157 -7.4225 13.8845 -6.58628 -7.28562 30.5207 -3.65083 -0.0 0.0 -0.0 -2.46748 23.6573 -0.628193 -17.9904 -12.3315 51.6632 2.51452 -51.2338 1.20582 -59.5782 -5.23034 5.08785 0.532335 -8.40731 0.0247886 -0.0 0.0 -0.0 13.0184 22.8389 -26.0539 -12.4595 30.0202 -63.6472 0.806436 21.7758 -0.155121 35.3182 0.128402 4.43922 0.367581 -17.1234 -9.23459 0.0 0.0 0.0 -6.94999 4.42522 4.93593 -12.5502 0.310007 1.89723 10.9853 19.608 -1.58952 15.4405 -0.0 -0.0 -0.0 0.0 -0.0 -2.41032 9.42735 5.88312 -15.0795 -0.321786 -2.28508 29.8131 -0.692292 3.88561 -6.2198 0.0 0.0 0.0 0.0 0.0 
3562.59524088 753.1 -1472.95507137 51.3306011826 87.3143015224 -60.5176295113 -0.855939 1.24384 5.4519 -0.839856 0.894941 5.51971 -0.740038 -0.356944 5.5802 -0.783076 0.527424 5.56672 -8.96297 13.0636 -5.27475 -9.03336 28.1133 -2.08196 -0.0 0.0 -0.0 -2.78779 23.8284 -1.03339 -19.859 -12.4233 52.6252 2.27991 -48.4708 1.02644 -60.2418 -5.31283 5.10864 0.512949 -7.82504 0.14179 -0.0 0.0 -0.0 13.2765 23.596 -26.5812 -11.7148 29.861 -62.8064 0.824107 22.207 -0.161739 36.2035 0.166662 4.54574 0.570947 -13.7413 -9.24754 0.0 0.0 0.0 -6.37319 4.83234 5.22715 -15.8239 0.321991 2.3993 13.0701 18.9938 -1.87356 16.3685 -0.0 -0.0 -0.0 0.0 -0.0 -3.06446 7.32435 5.59229 -9.4051 -0.271504 -1.41624 28.4411 0.262681 3.74356 -7.02968 0.0 0.0 0.0 0.0 0.0 
3562.4998276 753.1 -1473.7893673 20.2224852588 83.9245983742 -29.3357861068 -0.855939 1.24384 5.4519 -0.839856 0.894941 5.51971 -0.740038 -0.356944 5.5802 -0.783076 0.527424 5.56672 -8.96297 13.0636 -5.27475 -9.03336 28.1133 -2.08196 -0.0 0.0 -0.0 -2.78779 23.8284 -1.03339 -19.859 -12.4233 52.6252 2.27991 -48.4708 1.02644 -60.2418 -5.31283 5.10864 0.512949 -7.82504 0.14179 -0.0 0.0 -0.0 13.2765 23.596 -26.5812 -11.7148 29.861 -62.8064 0.824107 22.207 -0.161739 36.2035 0.166662 4.54574 0.570947 -13.7413 -9.24754 0.0 0.0 0.0 -6.37319 4.83234 5.22715 -15.8239 0.321991 2.3993 13.0701 18.9938 -1.87356 16.3685 -0.0 -0.0 -0.0 0.0 -0.0 -3.06446 7.32435 5.59229 -9.4051 -0.271504 -1.41624 28.4411 0.262681 3.74356 -7.02968 0.0 0.0 0.0 0.0 0.0 
3562.46513563 753.1 -1474.49226502 13.0655637544 80.6868372586 -22.1168884457 -0.855939 1.24384 5.4519 -0.839856 0.894941 5.51971 -0.740038 -0.356944 5.5802 -0.783076 0.527424 5.56672 -8.96297 13.0636 -5.27475 -9.03336 28.1133 -2.08196 -0.0 0.0 -0.0 -2.78779 23.8284 -1.03339 -19.859 -12.4233 52.6252 2.27991 -48.4708 1.02644 -60.2418 -5.31283 5.10864 0.512949 -7.82504 0.14179 -0.0 0.0 -0.0 13.2765 23.596 -26.5812 -11.7148 29.861 -62.8064 0.824107 22.207 -0.161739 36.2035 0.166662 4.54574 0.570947 -13.7413 -9.24754 0.0 0.0 0.0 -6.37319 4.83234 5.22715 -15.8239 0.321991 2.3993 13.0701 18.9938 -1.87356 16.3685 -0.0 -0.0 -0.0 0.0 -0.0 -3.06446 7.32435 5.59229 -9.4051 -0.271504 -1.41624 28.4411 0.262681 3.74356 -7.02968 0.0 0.0 0.0 0.0 0.0 
3555.67213346 750.387 -1470.02170942 13.6788519551 79.4571500704 -23.173841223 -0.929549 1.22275 5.3983 -0.913772 0.877297 5.46489 -0.816438 -0.369369 5.52235 -0.858612 0.50606 5.51154 -10.0257 12.5188 -4.22546 -10.2012 26.4065 -0.910755 -0.0 0.0 -0.0 -2.42253 23.9289 -0.517605 -20.7815 -12.6973 53.7694 2.13037 -46.536 0.916157 -60.7059 -5.37067 5.12262 0.441382 -5.35833 0.704869 -0.0 0.0 -0.0 13.6659 24.3777 -27.4088 -11.0295 29.8434 -62.7802 0.838261 22.5505 -0.167127 36.6097 0.184768 4.59441 0.684391 -8.68574 -8.05004 0.0 0.0 0.0 -4.48856 3.59759 4.4365 -17.7851 0.315427 2.70012 14.4942 17.733 -2.05837 16.4601 -0.0 -0.0 -0.0 0.0 -0.0 -4.5376 6.84189 6.07539 -5.13883 -0.17721 -0.768485 28.1373 1.14426 3.71715 -6.85011 0.0 0.0 0.0 0.0 0.0 
